<mxfile host="65bd71144e">
    <diagram id="rD1mvRRn1tdSP5MP-aVl" name="Page-1">
        <mxGraphModel dx="2757" dy="641" grid="1" gridSize="10" guides="1" tooltips="1" connect="1" arrows="1" fold="1" page="1" pageScale="1" pageWidth="827" pageHeight="1169" math="0" shadow="0">
            <root>
                <mxCell id="0"/>
                <mxCell id="1" parent="0"/>
                <mxCell id="89" value="&lt;b style=&quot;font-size: 11px;&quot;&gt;&lt;font color=&quot;#ffffff&quot; style=&quot;background-color: rgb(0, 0, 0); font-size: 11px;&quot;&gt;Horizontal slide showing different countries with description and activities to do nearby&lt;/font&gt;&lt;/b&gt;" style="rounded=0;whiteSpace=wrap;html=1;fillColor=none;verticalAlign=top;fontSize=11;" vertex="1" parent="1">
                    <mxGeometry x="-850" y="210" width="255" height="350" as="geometry"/>
                </mxCell>
                <mxCell id="2" value="&lt;span style=&quot;font-size: 11px;&quot;&gt;App&lt;/span&gt;" style="rounded=1;whiteSpace=wrap;html=1;fontSize=11;fontStyle=0" parent="1" vertex="1">
                    <mxGeometry x="310" y="180" width="60" height="30" as="geometry"/>
                </mxCell>
                <mxCell id="63" style="edgeStyle=orthogonalEdgeStyle;html=1;exitX=0;exitY=0.5;exitDx=0;exitDy=0;entryX=0.5;entryY=0;entryDx=0;entryDy=0;strokeWidth=2;backgroundOutline=0;shadow=0;" parent="1" source="4" target="11" edge="1">
                    <mxGeometry relative="1" as="geometry"/>
                </mxCell>
                <mxCell id="64" style="edgeStyle=orthogonalEdgeStyle;html=1;exitX=0;exitY=0.5;exitDx=0;exitDy=0;entryX=0.5;entryY=0;entryDx=0;entryDy=0;strokeWidth=2;" parent="1" source="4" target="57" edge="1">
                    <mxGeometry relative="1" as="geometry"/>
                </mxCell>
                <mxCell id="65" style="edgeStyle=orthogonalEdgeStyle;html=1;exitX=0;exitY=0.5;exitDx=0;exitDy=0;entryX=0.5;entryY=0;entryDx=0;entryDy=0;strokeWidth=2;" parent="1" source="4" target="56" edge="1">
                    <mxGeometry relative="1" as="geometry"/>
                </mxCell>
                <mxCell id="70" style="edgeStyle=orthogonalEdgeStyle;html=1;exitX=0;exitY=0.5;exitDx=0;exitDy=0;strokeWidth=2;" parent="1" source="4" target="5" edge="1">
                    <mxGeometry relative="1" as="geometry"/>
                </mxCell>
                <mxCell id="86" style="edgeStyle=orthogonalEdgeStyle;html=1;exitX=0;exitY=0.5;exitDx=0;exitDy=0;entryX=0.5;entryY=0;entryDx=0;entryDy=0;strokeColor=#F0F0F0;strokeWidth=2;" parent="1" source="4" target="79" edge="1">
                    <mxGeometry relative="1" as="geometry"/>
                </mxCell>
                <mxCell id="87" style="edgeStyle=orthogonalEdgeStyle;html=1;exitX=0;exitY=0.5;exitDx=0;exitDy=0;strokeColor=#F0F0F0;strokeWidth=2;" parent="1" source="4" target="78" edge="1">
                    <mxGeometry relative="1" as="geometry"/>
                </mxCell>
                <mxCell id="4" value="&lt;span style=&quot;font-size: 11px;&quot;&gt;StackAppRoutes&lt;/span&gt;" style="rounded=1;whiteSpace=wrap;html=1;fontStyle=0;fontSize=11;" parent="1" vertex="1">
                    <mxGeometry x="300" y="250" width="120" height="30" as="geometry"/>
                </mxCell>
                <mxCell id="71" style="edgeStyle=orthogonalEdgeStyle;html=1;exitX=1;exitY=0.5;exitDx=0;exitDy=0;strokeWidth=2;fillColor=#0050ef;strokeColor=#001DBC;" parent="1" source="5" target="8" edge="1">
                    <mxGeometry relative="1" as="geometry"/>
                </mxCell>
                <mxCell id="5" value="&lt;span style=&quot;font-size: 11px;&quot;&gt;Onboarding&lt;/span&gt;" style="rounded=1;whiteSpace=wrap;html=1;fontStyle=0;fontSize=11;" parent="1" vertex="1">
                    <mxGeometry x="-10" y="350" width="90" height="30" as="geometry"/>
                </mxCell>
                <mxCell id="72" style="edgeStyle=orthogonalEdgeStyle;html=1;exitX=0.5;exitY=1;exitDx=0;exitDy=0;entryX=1;entryY=0.5;entryDx=0;entryDy=0;strokeWidth=2;fillColor=#0050ef;strokeColor=#001DBC;" parent="1" source="8" target="23" edge="1">
                    <mxGeometry relative="1" as="geometry"/>
                </mxCell>
                <mxCell id="73" style="edgeStyle=orthogonalEdgeStyle;html=1;exitX=0.5;exitY=1;exitDx=0;exitDy=0;entryX=0.5;entryY=0;entryDx=0;entryDy=0;strokeWidth=2;fillColor=#0050ef;strokeColor=#001DBC;" parent="1" source="8" target="21" edge="1">
                    <mxGeometry relative="1" as="geometry">
                        <Array as="points">
                            <mxPoint x="80" y="520"/>
                        </Array>
                    </mxGeometry>
                </mxCell>
                <mxCell id="74" style="edgeStyle=orthogonalEdgeStyle;html=1;exitX=0.5;exitY=1;exitDx=0;exitDy=0;strokeWidth=2;fillColor=#0050ef;strokeColor=#001DBC;" parent="1" source="8" target="20" edge="1">
                    <mxGeometry relative="1" as="geometry"/>
                </mxCell>
                <mxCell id="75" style="edgeStyle=orthogonalEdgeStyle;html=1;exitX=0.5;exitY=1;exitDx=0;exitDy=0;strokeWidth=2;fillColor=#0050ef;strokeColor=#001DBC;" parent="1" source="8" target="22" edge="1">
                    <mxGeometry relative="1" as="geometry">
                        <Array as="points">
                            <mxPoint x="80" y="450"/>
                            <mxPoint x="305" y="450"/>
                        </Array>
                    </mxGeometry>
                </mxCell>
                <mxCell id="8" value="&lt;span style=&quot;font-size: 11px;&quot;&gt;BottomTabApp_Routes&lt;/span&gt;" style="rounded=1;whiteSpace=wrap;html=1;fontStyle=0;fontSize=11;" parent="1" vertex="1">
                    <mxGeometry x="130" y="350" width="140" height="30" as="geometry"/>
                </mxCell>
                <mxCell id="9" value="&lt;span style=&quot;font-size: 11px;&quot;&gt;HotelDetails&lt;/span&gt;" style="rounded=1;whiteSpace=wrap;html=1;fontStyle=0;fontSize=11;" parent="1" vertex="1">
                    <mxGeometry x="590" y="310" width="80" height="30" as="geometry"/>
                </mxCell>
                <mxCell id="10" value="&lt;span style=&quot;font-size: 11px;&quot;&gt;PlaceDetails&lt;/span&gt;" style="rounded=1;whiteSpace=wrap;html=1;fontSize=11;fontStyle=0" parent="1" vertex="1">
                    <mxGeometry x="500" y="310" width="80" height="30" as="geometry"/>
                </mxCell>
                <mxCell id="11" value="&lt;span style=&quot;font-size: 11px;&quot;&gt;CountryDetails&lt;/span&gt;" style="rounded=1;whiteSpace=wrap;html=1;strokeColor=#66FF66;fontSize=11;fontStyle=0" parent="1" vertex="1">
                    <mxGeometry x="-707" y="390" width="100" height="30" as="geometry"/>
                </mxCell>
                <mxCell id="12" value="&lt;span style=&quot;font-size: 11px;&quot;&gt;HotelSearch&lt;/span&gt;" style="rounded=1;whiteSpace=wrap;html=1;fontSize=11;fontStyle=0" parent="1" vertex="1">
                    <mxGeometry x="780" y="310" width="90" height="30" as="geometry"/>
                </mxCell>
                <mxCell id="13" value="&lt;span style=&quot;font-size: 11px;&quot;&gt;HotelList&lt;/span&gt;" style="rounded=1;whiteSpace=wrap;html=1;fontStyle=0;fontSize=11;" parent="1" vertex="1">
                    <mxGeometry x="697" y="310" width="73" height="30" as="geometry"/>
                </mxCell>
                <mxCell id="14" value="&lt;span style=&quot;font-size: 11px;&quot;&gt;Recommended&lt;/span&gt;" style="rounded=1;whiteSpace=wrap;html=1;fontSize=11;fontStyle=0" parent="1" vertex="1">
                    <mxGeometry x="364" y="340" width="100" height="30" as="geometry"/>
                </mxCell>
                <mxCell id="15" value="&lt;span style=&quot;font-size: 11px;&quot;&gt;Search&lt;/span&gt;" style="rounded=1;whiteSpace=wrap;html=1;fontSize=11;fontStyle=0" parent="1" vertex="1">
                    <mxGeometry x="310" y="340" width="60" height="30" as="geometry"/>
                </mxCell>
                <mxCell id="20" value="&lt;span style=&quot;font-size: 11px;&quot;&gt;Chat&lt;/span&gt;" style="rounded=1;whiteSpace=wrap;html=1;fontStyle=0;fontSize=11;" parent="1" vertex="1">
                    <mxGeometry x="160" y="520" width="90" height="30" as="geometry"/>
                </mxCell>
                <mxCell id="21" value="&lt;span style=&quot;font-size: 11px;&quot;&gt;Location&lt;/span&gt;" style="rounded=1;whiteSpace=wrap;html=1;fontStyle=0;fontSize=11;" parent="1" vertex="1">
                    <mxGeometry x="40" y="520" width="90" height="30" as="geometry"/>
                </mxCell>
                <mxCell id="22" value="&lt;span style=&quot;font-size: 11px;&quot;&gt;Profile&lt;/span&gt;" style="rounded=1;whiteSpace=wrap;html=1;fontStyle=0;fontSize=11;" parent="1" vertex="1">
                    <mxGeometry x="270" y="520" width="90" height="30" as="geometry"/>
                </mxCell>
                <mxCell id="59" style="edgeStyle=orthogonalEdgeStyle;html=1;exitX=0;exitY=0.5;exitDx=0;exitDy=0;entryX=1;entryY=0.5;entryDx=0;entryDy=0;strokeWidth=2;" parent="1" source="23" target="26" edge="1">
                    <mxGeometry relative="1" as="geometry">
                        <Array as="points">
                            <mxPoint x="-260" y="435"/>
                            <mxPoint x="-260" y="525"/>
                        </Array>
                    </mxGeometry>
                </mxCell>
                <mxCell id="66" style="edgeStyle=orthogonalEdgeStyle;html=1;exitX=0;exitY=0.5;exitDx=0;exitDy=0;entryX=0.5;entryY=1;entryDx=0;entryDy=0;strokeWidth=2;" parent="1" source="23" target="27" edge="1">
                    <mxGeometry relative="1" as="geometry"/>
                </mxCell>
                <mxCell id="85" style="edgeStyle=orthogonalEdgeStyle;html=1;exitX=0.5;exitY=0;exitDx=0;exitDy=0;entryX=0.5;entryY=1;entryDx=0;entryDy=0;strokeColor=#66FF66;strokeWidth=2;fillColor=#008a00;" parent="1" source="23" target="28" edge="1">
                    <mxGeometry relative="1" as="geometry"/>
                </mxCell>
                <mxCell id="23" value="&lt;span style=&quot;font-size: 11px;&quot;&gt;Home&lt;/span&gt;" style="rounded=1;whiteSpace=wrap;html=1;fontStyle=0;fontSize=11;" parent="1" vertex="1">
                    <mxGeometry x="-220" y="470" width="90" height="30" as="geometry"/>
                </mxCell>
                <mxCell id="37" style="edgeStyle=none;html=1;exitX=0.5;exitY=0;exitDx=0;exitDy=0;entryX=0.5;entryY=1;entryDx=0;entryDy=0;strokeWidth=2;fillColor=#60a917;strokeColor=#66FF66;" parent="1" source="26" target="30" edge="1">
                    <mxGeometry relative="1" as="geometry"/>
                </mxCell>
                <mxCell id="26" value="&lt;span style=&quot;font-size: 11px;&quot;&gt;Places&lt;/span&gt;" style="rounded=1;whiteSpace=wrap;html=1;strokeColor=#FF66FF;fontSize=11;fontStyle=0" parent="1" vertex="1">
                    <mxGeometry x="-702" y="510" width="90" height="30" as="geometry"/>
                </mxCell>
                <mxCell id="67" style="edgeStyle=orthogonalEdgeStyle;html=1;exitX=0.5;exitY=0;exitDx=0;exitDy=0;entryX=0.5;entryY=1;entryDx=0;entryDy=0;strokeWidth=2;fillColor=#0050ef;strokeColor=#001DBC;" parent="1" source="27" target="56" edge="1">
                    <mxGeometry relative="1" as="geometry"/>
                </mxCell>
                <mxCell id="68" style="edgeStyle=orthogonalEdgeStyle;html=1;exitX=0.5;exitY=0;exitDx=0;exitDy=0;entryX=0.5;entryY=1;entryDx=0;entryDy=0;strokeWidth=2;fillColor=#0050ef;strokeColor=#001DBC;" parent="1" source="27" target="57" edge="1">
                    <mxGeometry relative="1" as="geometry"/>
                </mxCell>
                <mxCell id="27" value="&lt;span style=&quot;font-size: 11px;&quot;&gt;Recommendations&lt;/span&gt;" style="rounded=1;whiteSpace=wrap;html=1;strokeColor=#FF66FF;fontStyle=0;fontSize=11;" parent="1" vertex="1">
                    <mxGeometry x="-410" y="380" width="120" height="30" as="geometry"/>
                </mxCell>
                <mxCell id="82" style="edgeStyle=orthogonalEdgeStyle;html=1;exitX=0.5;exitY=0;exitDx=0;exitDy=0;entryX=0.5;entryY=1;entryDx=0;entryDy=0;strokeWidth=2;strokeColor=#3333FF;" parent="1" source="28" target="79" edge="1">
                    <mxGeometry relative="1" as="geometry"/>
                </mxCell>
                <mxCell id="83" style="edgeStyle=orthogonalEdgeStyle;html=1;exitX=0.5;exitY=0;exitDx=0;exitDy=0;entryX=0.5;entryY=1;entryDx=0;entryDy=0;strokeWidth=2;strokeColor=#3333FF;" parent="1" source="28" target="78" edge="1">
                    <mxGeometry relative="1" as="geometry"/>
                </mxCell>
                <mxCell id="28" value="&lt;span style=&quot;font-size: 11px;&quot;&gt;BestHotels&lt;/span&gt;" style="rounded=1;whiteSpace=wrap;html=1;strokeColor=#FF66FF;fontStyle=0;fontSize=11;" parent="1" vertex="1">
                    <mxGeometry x="-150" y="370" width="90" height="30" as="geometry"/>
                </mxCell>
                <mxCell id="35" style="edgeStyle=orthogonalEdgeStyle;html=1;exitX=0.5;exitY=0;exitDx=0;exitDy=0;entryX=0;entryY=0.5;entryDx=0;entryDy=0;fillColor=#d80073;strokeColor=#A50040;strokeWidth=2;" parent="1" source="29" target="11" edge="1">
                    <mxGeometry relative="1" as="geometry"/>
                </mxCell>
                <mxCell id="36" style="edgeStyle=none;html=1;exitX=1;exitY=0.5;exitDx=0;exitDy=0;entryX=0;entryY=0.5;entryDx=0;entryDy=0;fillColor=#d80073;strokeColor=#A50040;strokeWidth=2;" parent="1" source="29" target="26" edge="1">
                    <mxGeometry relative="1" as="geometry"/>
                </mxCell>
                <mxCell id="29" value="&lt;span style=&quot;font-size: 11px;&quot;&gt;dataCountry&lt;/span&gt;" style="rounded=1;whiteSpace=wrap;html=1;strokeColor=#FF3333;fontSize=11;fontStyle=0" parent="1" vertex="1">
                    <mxGeometry x="-820" y="510" width="90" height="30" as="geometry"/>
                </mxCell>
                <mxCell id="34" style="edgeStyle=none;html=1;exitX=0.5;exitY=0;exitDx=0;exitDy=0;entryX=0.5;entryY=1;entryDx=0;entryDy=0;strokeWidth=2;fillColor=#0050ef;strokeColor=#001DBC;" parent="1" source="30" target="11" edge="1">
                    <mxGeometry relative="1" as="geometry"/>
                </mxCell>
                <mxCell id="30" value="&lt;span style=&quot;font-size: 11px;&quot;&gt;Country&lt;/span&gt;" style="rounded=1;whiteSpace=wrap;html=1;strokeColor=#FF66FF;fontSize=11;fontStyle=0" parent="1" vertex="1">
                    <mxGeometry x="-702" y="450" width="90" height="30" as="geometry"/>
                </mxCell>
                <mxCell id="46" value="LEGENDE" style="swimlane;whiteSpace=wrap;html=1;" parent="1" vertex="1">
                    <mxGeometry x="-1230" y="120" width="270" height="340" as="geometry"/>
                </mxCell>
                <mxCell id="51" value="&lt;b&gt;Navigation (redirection)&lt;/b&gt;" style="rounded=1;whiteSpace=wrap;html=1;horizontal=1;verticalAlign=top;labelPosition=center;verticalLabelPosition=middle;align=center;" parent="46" vertex="1">
                    <mxGeometry x="50" y="40" width="150" height="50" as="geometry"/>
                </mxCell>
                <mxCell id="47" value="" style="endArrow=classic;html=1;strokeWidth=4;fillColor=#0050ef;strokeColor=#001DBC;" parent="46" edge="1">
                    <mxGeometry width="50" height="50" relative="1" as="geometry">
                        <mxPoint x="100" y="70" as="sourcePoint"/>
                        <mxPoint x="150" y="70" as="targetPoint"/>
                    </mxGeometry>
                </mxCell>
                <mxCell id="52" value="&lt;b&gt;Data vers Screens OU Components&lt;/b&gt;" style="rounded=1;whiteSpace=wrap;html=1;horizontal=1;verticalAlign=top;labelPosition=center;verticalLabelPosition=middle;align=center;" parent="46" vertex="1">
                    <mxGeometry x="50" y="100" width="150" height="60" as="geometry"/>
                </mxCell>
                <mxCell id="53" value="" style="endArrow=classic;html=1;strokeWidth=4;fillColor=#e51400;strokeColor=#B20000;" parent="46" edge="1">
                    <mxGeometry width="50" height="50" relative="1" as="geometry">
                        <mxPoint x="100" y="150" as="sourcePoint"/>
                        <mxPoint x="150" y="150" as="targetPoint"/>
                    </mxGeometry>
                </mxCell>
                <mxCell id="54" value="&lt;b&gt;Screens vers components&lt;/b&gt;" style="rounded=1;whiteSpace=wrap;html=1;horizontal=1;verticalAlign=top;labelPosition=center;verticalLabelPosition=middle;align=center;" parent="46" vertex="1">
                    <mxGeometry x="50" y="170" width="150" height="60" as="geometry"/>
                </mxCell>
                <mxCell id="55" value="" style="endArrow=classic;html=1;strokeWidth=4;fillColor=#008a00;strokeColor=#005700;" parent="46" edge="1">
                    <mxGeometry width="50" height="50" relative="1" as="geometry">
                        <mxPoint x="100" y="220" as="sourcePoint"/>
                        <mxPoint x="150" y="220" as="targetPoint"/>
                    </mxGeometry>
                </mxCell>
                <mxCell id="91" value="&lt;b&gt;Common&lt;/b&gt;" style="rounded=1;whiteSpace=wrap;html=1;strokeColor=#FF66FF;" vertex="1" parent="46">
                    <mxGeometry x="10" y="250" width="120" height="30" as="geometry"/>
                </mxCell>
                <mxCell id="92" value="&lt;b&gt;Screens&lt;/b&gt;" style="rounded=1;whiteSpace=wrap;html=1;strokeColor=#66FF66;" vertex="1" parent="46">
                    <mxGeometry x="140" y="250" width="120" height="30" as="geometry"/>
                </mxCell>
                <mxCell id="93" value="&lt;b&gt;datas&lt;/b&gt;" style="rounded=1;whiteSpace=wrap;html=1;strokeColor=#FF3333;" vertex="1" parent="46">
                    <mxGeometry x="10" y="290" width="120" height="30" as="geometry"/>
                </mxCell>
                <mxCell id="56" value="&lt;span style=&quot;font-size: 11px;&quot;&gt;PlaceDetails&lt;/span&gt;" style="rounded=1;whiteSpace=wrap;html=1;strokeColor=#66FF66;fontStyle=0;fontSize=11;" parent="1" vertex="1">
                    <mxGeometry x="-340" y="300" width="120" height="30" as="geometry"/>
                </mxCell>
                <mxCell id="57" value="&lt;span style=&quot;font-size: 11px;&quot;&gt;Recommended&lt;/span&gt;" style="rounded=1;whiteSpace=wrap;html=1;strokeColor=#66FF66;fontStyle=0;fontSize=11;" parent="1" vertex="1">
                    <mxGeometry x="-480" y="300" width="120" height="30" as="geometry"/>
                </mxCell>
                <mxCell id="84" style="edgeStyle=orthogonalEdgeStyle;html=1;exitX=1;exitY=0.5;exitDx=0;exitDy=0;entryX=0;entryY=0.5;entryDx=0;entryDy=0;strokeWidth=2;fillColor=#a20025;strokeColor=#FF3333;" parent="1" source="77" target="28" edge="1">
                    <mxGeometry relative="1" as="geometry"/>
                </mxCell>
                <mxCell id="77" value="&lt;span style=&quot;font-size: 11px;&quot;&gt;dataHotels&lt;/span&gt;" style="rounded=1;whiteSpace=wrap;html=1;strokeColor=#FF3333;fontSize=11;fontStyle=0" parent="1" vertex="1">
                    <mxGeometry x="-270" y="370" width="90" height="30" as="geometry"/>
                </mxCell>
                <mxCell id="78" value="&lt;span style=&quot;font-size: 11px;&quot;&gt;HotelList&lt;/span&gt;" style="rounded=1;whiteSpace=wrap;html=1;strokeColor=#66FF66;fontSize=11;fontStyle=0" parent="1" vertex="1">
                    <mxGeometry x="-100" y="300" width="80" height="30" as="geometry"/>
                </mxCell>
                <mxCell id="79" value="&lt;span style=&quot;font-size: 11px;&quot;&gt;HotelDetails&lt;/span&gt;" style="rounded=1;whiteSpace=wrap;html=1;strokeColor=#66FF66;fontStyle=0;fontSize=11;" parent="1" vertex="1">
                    <mxGeometry x="-210" y="300" width="80" height="30" as="geometry"/>
                </mxCell>
                <mxCell id="94" value="&lt;span style=&quot;font-size: 11px;&quot;&gt;HotelSearch&lt;/span&gt;" style="rounded=1;whiteSpace=wrap;html=1;strokeColor=#66FF66;fontSize=11;fontStyle=0" vertex="1" parent="1">
                    <mxGeometry x="-620" y="330" width="100" height="30" as="geometry"/>
                </mxCell>
                <mxCell id="95" value="&lt;span&gt;PlacesByCountry&lt;/span&gt;" style="rounded=1;whiteSpace=wrap;html=1;strokeColor=#66FF66;fontStyle=0" vertex="1" parent="1">
                    <mxGeometry x="-820" y="310" width="100" height="30" as="geometry"/>
                </mxCell>
                <mxCell id="96" value="&lt;span style=&quot;font-size: 11px;&quot;&gt;Popular list&lt;/span&gt;" style="rounded=1;whiteSpace=wrap;html=1;strokeColor=#FF66FF;fontSize=11;fontStyle=0" vertex="1" parent="1">
                    <mxGeometry x="-570" y="390" width="90" height="30" as="geometry"/>
                </mxCell>
            </root>
        </mxGraphModel>
    </diagram>
</mxfile>